<svg width="800" height="444" viewBox="0 0 800 444" fill="none" xmlns="http://www.w3.org/2000/svg">
<g clip-path="url(#clip0_2147_433)">
<path fill-rule="evenodd" clip-rule="evenodd" d="M666.666 25H133.333C115.652 25 98.6947 32.0238 86.1922 44.5262C73.6898 57.0286 66.666 73.9856 66.666 91.6667V358.333C66.666 376.014 73.6898 392.971 86.1922 405.474C98.6947 417.976 115.652 425 133.333 425H666.666C684.347 425 701.304 417.976 713.806 405.474C726.309 392.971 733.333 376.014 733.333 358.333V91.6667C733.333 73.9856 726.309 57.0286 713.806 44.5262C701.304 32.0238 684.347 25 666.666 25ZM309.666 318.333L299.999 282.667H238.666L228.999 318.333H172.333L233.333 127.333H302.999L366.666 318.333H309.666ZM520.999 213.667C518.601 221.567 514.506 228.848 508.999 235C502.737 241.488 495.108 246.498 486.666 249.667C476.002 253.606 464.699 255.528 453.333 255.333H438.666V318.333H386.666V128H453.333C472.626 126.607 491.781 132.164 507.333 143.667C513.592 149.294 518.493 156.266 521.669 164.061C524.844 171.855 526.211 180.268 525.666 188.667C525.477 197.198 523.901 205.642 520.999 213.667ZM606.999 318.333H555.333V128H606.999V318.333ZM281.666 209.333L289.666 240.333H249.333L257.333 209.333C257.333 205 259.999 200 261.333 193.667C262.666 187.333 264.333 181 265.666 174.667C267.059 169.396 268.172 164.055 268.999 158.667C268.999 163 271.333 168.333 272.666 175.333L277.666 194.667L281.666 209.333ZM467.999 176C469.833 177.889 471.254 180.139 472.172 182.606C473.09 185.074 473.485 187.705 473.333 190.333C473.517 195.259 472.242 200.13 469.666 204.333C467.472 207.628 464.336 210.184 460.666 211.667C456.765 213.305 452.562 214.101 448.333 214H437.999V169.667H451.333C454.138 169.538 456.94 169.973 459.573 170.947C462.207 171.92 464.619 173.412 466.666 175.333L467.999 176Z" fill="#39965F"/>
</g>
<defs>
<clipPath id="clip0_2147_433">
<rect width="800" height="444" fill="white"/>
</clipPath>
</defs>
</svg>
