<svg width="339" height="339" viewBox="0 0 339 339" fill="none" xmlns="http://www.w3.org/2000/svg">
<path fill-rule="evenodd" clip-rule="evenodd" d="M311.021 0H191.646V146.418H338.044V26.788C338.044 12.0099 325.97 0 311.021 0ZM297.287 85.2616H231.147V61.6891H297.287V85.2616Z" fill="#39965F"/>
<path fill-rule="evenodd" clip-rule="evenodd" d="M189.879 338.938H310.702C325.821 338.938 338.043 326.822 338.043 311.81V191.668H189.879V338.938ZM231.466 232.702H296.839V255.316H231.466V232.702ZM231.466 274.95H296.349V298.245H231.466V274.95Z" fill="#39965F"/>
<path fill-rule="evenodd" clip-rule="evenodd" d="M145.119 0H26.4686C11.8182 0 0 12.0099 0 26.8093V146.546H145.119V0ZM104.703 84.7932H83.7498V106.918H61.6891V84.7932H39.9478V62.626H61.6891V41.2893H83.7498V62.626H104.703V84.7932Z" fill="#39965F"/>
<path fill-rule="evenodd" clip-rule="evenodd" d="M0 311.639C0 326.737 11.9673 338.938 26.7241 338.938H146.397V190.774H0V311.639ZM50.2541 227.166L72.5278 249.461L94.844 227.123L110.431 242.71L88.1151 265.048L110.708 287.641L95.0569 303.313L72.4426 280.72L50.68 302.462L35.0927 286.874L56.834 265.133L34.5817 242.838L50.2541 227.166Z" fill="#39965F"/>
</svg>
