<svg width="800" height="800" viewBox="0 0 800 800" fill="none" xmlns="http://www.w3.org/2000/svg">
<path d="M733.334 171.667V295C733.334 370 703.334 400 628.334 400H538.334C463.334 400 433.334 370 433.334 295V171.667C433.334 96.6667 463.334 66.6667 538.334 66.6667H628.334C703.334 66.6667 733.334 96.6667 733.334 171.667Z" fill="#39965F"/>
<path d="M366.666 505V628.333C366.666 703.333 336.666 733.333 261.666 733.333H171.666C96.666 733.333 66.666 703.333 66.666 628.333V505C66.666 430 96.666 400 171.666 400H261.666C336.666 400 366.666 430 366.666 505Z" fill="#39965F"/>
<path d="M492.65 733.317C483.65 733.317 475.316 728.317 470.983 720.65C466.65 712.65 466.65 703.317 471.316 695.317L503.65 641.317C510.65 629.317 525.983 625.65 537.983 632.65C549.983 639.65 553.65 654.983 546.65 666.983L540.65 676.983C622.983 655.65 683.65 580.983 683.65 492.317C683.65 478.65 694.983 467.317 708.65 467.317C722.316 467.317 733.316 478.65 733.316 492.65C733.316 625.317 625.316 733.317 492.65 733.317Z" fill="#39965F"/>
<path d="M91.666 332.333C77.9993 332.333 66.666 321.333 66.666 307.333C66.666 174.667 174.666 66.6667 307.333 66.6667C316.666 66.6667 324.666 71.6667 329.333 79.3334C333.666 87.3334 333.666 96.6667 328.999 104.667L296.666 158.333C289.333 170.333 273.999 174.333 262.333 167C250.333 160 246.666 144.667 253.666 132.667L259.666 122.667C177.666 144 116.666 218.667 116.666 307.333C116.666 321.333 105.333 332.333 91.666 332.333Z" fill="#39965F"/>
</svg>
