<svg width="800" height="800" viewBox="0 0 800 800" fill="none" xmlns="http://www.w3.org/2000/svg">
<path d="M399.991 0.00939941C179.073 0.0203369 0.01875 179.081 0 400C0.01875 620.917 179.073 799.978 399.991 799.991C620.927 799.978 799.987 620.917 800 400C799.987 179.081 620.927 0.0203369 399.991 0.00939941ZM152.511 152.519C188.98 116.069 233.387 87.7141 282.909 70.136C259.186 98.8469 239.409 135.614 223.914 178.13H129.331C136.644 169.231 144.369 160.663 152.511 152.519ZM102.519 215.63H211.872C197.797 265.519 189.356 321.62 187.867 381.25H50.5109C53.7094 320.619 72.3437 264.2 102.519 215.63ZM102.519 584.37C72.3437 535.8 53.7094 479.381 50.5109 418.75H187.997C189.498 478.319 197.7 534.519 211.756 584.372L102.519 584.37ZM152.511 647.478C144.369 639.336 136.642 630.767 129.33 621.869H223.975C230.662 640.266 238.067 657.719 246.338 673.759C257.203 694.756 269.397 713.553 282.819 729.838C233.331 712.259 188.955 683.905 152.511 647.478ZM381.247 749.48C375.394 749.173 369.577 748.734 363.803 748.136C354.6 744.011 345.487 738.37 336.459 731.009C308.909 708.573 283.372 670.586 263.963 621.869H381.245V749.48H381.247ZM381.247 584.37H250.878C236.07 535.666 226.947 479.197 225.366 418.748H381.245V584.37H381.247ZM381.247 381.25H225.484C227.059 320.766 236.227 264.345 251.045 215.63H381.248L381.247 381.25ZM381.247 178.13H264.136C268.994 165.958 274.084 154.205 279.658 143.45C296.283 111.223 315.861 85.8094 336.461 68.9875C345.488 61.6281 354.6 55.9875 363.805 51.8625C369.578 51.2657 375.394 50.825 381.248 50.5203L381.247 178.13ZM697.487 215.63C727.662 264.2 746.291 320.62 749.489 381.25H612.003C610.502 321.681 602.3 265.481 588.237 215.63H697.487ZM647.489 152.519C655.631 160.661 663.358 169.231 670.67 178.13H576.019C569.33 159.734 561.92 142.278 553.656 126.239C542.792 105.244 530.597 86.4453 517.177 70.161C566.669 87.75 611.039 116.095 647.489 152.519ZM418.747 50.5203C424.6 50.825 430.417 51.2766 436.184 51.8625C445.387 56.0016 454.502 61.6281 463.534 68.9875C491.091 91.4235 516.622 129.411 536.03 178.128H418.747V50.5203ZM418.747 215.63H549.116C563.922 264.334 573.053 320.802 574.628 381.25H418.747V215.63ZM418.747 418.75H574.505C572.931 479.234 563.764 535.653 548.944 584.372H418.747V418.75ZM463.533 731.009C454.5 738.37 445.386 743.998 436.183 748.136C430.416 748.722 424.598 749.173 418.745 749.48V621.87H535.856C530.998 634.041 525.908 645.795 520.336 656.55C503.713 688.775 484.133 714.189 463.533 731.009ZM647.489 647.478C611.027 683.928 566.608 712.284 517.084 729.861C540.814 701.15 560.577 664.384 576.08 621.869H670.67C663.356 630.769 655.631 639.337 647.489 647.478ZM697.487 584.37H588.116C602.191 534.481 610.637 478.367 612.127 418.748H749.489C746.291 479.381 727.662 535.8 697.487 584.37Z" fill="#39965F"/>
</svg>
