<svg width="800" height="800" viewBox="0 0 800 800" fill="none" xmlns="http://www.w3.org/2000/svg">
<path fill-rule="evenodd" clip-rule="evenodd" d="M491.406 150H649.985V308.578L308.579 649.985L150 491.406L491.406 150ZM420.696 79.2895C439.449 60.5355 464.885 50 491.406 50H749.985V308.578C749.985 335.1 739.45 360.536 720.695 379.29L379.289 720.695C340.237 759.75 276.92 759.75 237.868 720.695L79.2892 562.115C40.2369 523.065 40.2369 459.748 79.2892 420.695L420.696 79.2895ZM549.985 300C577.6 300 599.985 277.614 599.985 250C599.985 222.386 577.6 200 549.985 200C522.37 200 499.985 222.386 499.985 250C499.985 277.614 522.37 300 549.985 300Z" fill="#39965F"/>
</svg>
