<svg width="800" height="800" viewBox="0 0 800 800" fill="none" xmlns="http://www.w3.org/2000/svg">
<path d="M399.999 250.667C458.666 228 508.666 216.667 549.999 216.667C598.622 216.667 645.254 235.982 679.636 270.364C714.017 304.745 733.333 351.377 733.333 400C733.333 448.623 714.017 495.255 679.636 529.636C645.254 564.018 598.622 583.333 549.999 583.333C508.666 583.333 458.666 571.6 399.999 548.1C341.333 571.6 291.333 583.333 249.999 583.333C201.376 583.333 154.745 564.018 120.363 529.636C85.9814 495.255 66.666 448.623 66.666 400C66.666 351.377 85.9814 304.745 120.363 270.364C154.745 235.982 201.376 216.667 249.999 216.667C291.333 216.667 341.333 228 399.999 250.667ZM424.033 312.867L399.999 322.133L375.966 312.867C324.366 292.933 282.099 283.333 249.999 283.333C219.057 283.333 189.383 295.625 167.504 317.504C145.624 339.383 133.333 369.058 133.333 400C133.333 430.942 145.624 460.616 167.504 482.496C189.383 504.375 219.057 516.667 249.999 516.667C281.766 516.667 323.833 506.8 375.233 486.233L399.999 476.3L424.766 486.233C476.166 506.8 518.233 516.667 549.999 516.667C580.941 516.667 610.616 504.375 632.495 482.496C654.374 460.616 666.666 430.942 666.666 400C666.666 369.058 654.374 339.383 632.495 317.504C610.616 295.625 580.941 283.333 549.999 283.333C517.899 283.333 475.633 292.933 424.033 312.867ZM266.666 450C229.833 450 199.999 427.6 199.999 400C199.999 372.4 229.833 350 266.666 350C303.499 350 333.333 372.4 333.333 400C333.333 427.6 303.499 450 266.666 450ZM533.333 450C496.499 450 466.666 427.6 466.666 400C466.666 372.4 496.499 350 533.333 350C570.166 350 599.999 372.4 599.999 400C599.999 427.6 570.166 450 533.333 450Z" fill="#39965F"/>
</svg>
