<svg width="617" height="624" viewBox="0 0 617 624" fill="none" xmlns="http://www.w3.org/2000/svg">
<path d="M446.255 70.2649C405.606 46.6775 358.38 33.1724 308.001 33.1724C155.646 33.1724 32.1387 156.68 32.1387 309.034C32.1387 461.389 155.646 584.896 308.001 584.896C460.355 584.896 583.863 461.389 583.863 309.034C583.863 259.003 570.544 212.081 547.257 171.623" stroke="#39965F" stroke-width="55.1724" stroke-linecap="round" stroke-linejoin="round"/>
<path d="M417.653 199.382C417.653 199.382 370.926 324.134 349.381 345.68C327.835 367.226 292.901 367.226 271.355 345.68C249.809 324.134 249.809 289.2 271.355 267.654C292.901 246.108 417.653 199.382 417.653 199.382Z" stroke="#39965F" stroke-width="55.1724" stroke-linejoin="round"/>
</svg>
