<svg width="250" height="250" viewBox="0 0 250 250" fill="none" xmlns="http://www.w3.org/2000/svg">
<path d="M203.125 171.875C197.567 171.86 192.13 173.491 187.5 176.563L151.672 140.625L140.625 151.672L176.563 187.5C175.189 189.959 174.139 192.585 173.438 195.313H77.0145C76.2275 192.542 75.0213 189.907 73.4375 187.5L187.5 73.438C192.13 76.51 197.567 78.1413 203.125 78.126C208.975 78.1493 214.714 76.5301 219.689 73.4525C224.664 70.375 228.675 65.9627 231.266 60.7178C233.858 55.4729 234.924 49.6059 234.346 43.7846C233.767 37.9632 231.566 32.4212 227.993 27.7892C224.419 23.1571 219.618 19.621 214.134 17.5833C208.65 15.5456 202.705 15.088 196.974 16.2627C191.243 17.4374 185.957 20.1972 181.717 24.228C177.477 28.2588 174.454 33.3987 172.992 39.063H77.3445C75.5084 32.3725 71.5395 26.4638 66.0404 22.2338C60.5412 18.0038 53.8121 15.6834 46.8745 15.625C38.5865 15.625 30.6379 18.9174 24.7774 24.7779C18.9169 30.6384 15.6245 38.587 15.6245 46.875C15.6245 55.163 18.9169 63.1116 24.7774 68.9721C30.6379 74.8326 38.5865 78.125 46.8745 78.125C52.4315 78.1406 57.8686 76.5096 62.4995 73.438L98.3275 109.376L109.375 98.329L73.4375 62.5C74.8108 60.0409 75.8611 57.4149 76.5625 54.687H172.985C173.772 57.4586 174.978 60.0934 176.563 62.5L62.4995 176.563C57.8687 173.491 52.4316 171.86 46.8745 171.875C41.0245 171.852 35.2854 173.471 30.3103 176.548C25.3352 179.626 21.3238 184.038 18.7326 189.283C16.1415 194.528 15.0746 200.395 15.6533 206.216C16.2321 212.038 18.4333 217.58 22.0064 222.212C25.5796 226.844 30.3812 230.38 35.8648 232.418C41.3485 234.455 47.2941 234.913 53.025 233.738C58.7559 232.564 64.042 229.804 68.2818 225.773C72.5216 221.742 75.5449 216.602 77.0075 210.938H172.658C174.102 216.62 177.111 221.784 181.343 225.841C185.576 229.899 190.861 232.688 196.599 233.891C202.337 235.095 208.298 234.665 213.804 232.65C219.31 230.635 224.141 227.116 227.747 222.494C231.353 217.871 233.59 212.329 234.203 206.498C234.817 200.667 233.783 194.781 231.219 189.509C228.654 184.236 224.663 179.789 219.697 176.671C214.731 173.554 208.991 171.893 203.128 171.875M203.128 31.25C206.218 31.25 209.239 32.1664 211.808 33.8833C214.378 35.6002 216.381 38.0405 217.563 40.8956C218.746 43.7507 219.055 46.8923 218.452 49.9233C217.849 52.9542 216.361 55.7383 214.176 57.9235C211.991 60.1087 209.207 61.5969 206.176 62.1998C203.145 62.8027 200.003 62.4932 197.148 61.3106C194.293 60.128 191.853 58.1253 190.136 55.5558C188.419 52.9863 187.503 49.9653 187.503 46.875C187.516 42.735 189.166 38.7684 192.094 35.841C195.021 32.9136 198.988 31.2632 203.128 31.25ZM46.8745 62.5C43.7842 62.5 40.7632 61.5836 38.1937 59.8667C35.6242 58.1498 33.6215 55.7095 32.4389 52.8544C31.2563 49.9993 30.9468 46.8577 31.5497 43.8267C32.1526 40.7958 33.6408 38.0117 35.826 35.8265C38.0112 33.6413 40.7953 32.1531 43.8262 31.5502C46.8572 30.9473 49.9988 31.2568 52.8539 32.4394C55.709 33.622 58.1493 35.6247 59.8662 38.1942C61.5831 40.7637 62.4995 43.7847 62.4995 46.875C62.4863 51.015 60.8359 54.9816 57.9085 57.909C54.9811 60.8364 51.0145 62.4868 46.8745 62.5ZM46.8745 218.75C43.7842 218.75 40.7632 217.834 38.1937 216.117C35.6242 214.4 33.6215 211.96 32.4389 209.104C31.2563 206.249 30.9468 203.108 31.5497 200.077C32.1526 197.046 33.6408 194.262 35.826 192.076C38.0112 189.891 40.7953 188.403 43.8262 187.8C46.8572 187.197 49.9988 187.507 52.8539 188.689C55.709 189.872 58.1493 191.875 59.8662 194.444C61.5831 197.014 62.4995 200.035 62.4995 203.125C62.4863 207.265 60.8359 211.232 57.9085 214.159C54.9811 217.086 51.0145 218.737 46.8745 218.75ZM203.125 218.75C200.034 218.75 197.013 217.834 194.444 216.117C191.874 214.4 189.872 211.96 188.689 209.104C187.506 206.249 187.197 203.108 187.8 200.077C188.403 197.046 189.891 194.262 192.076 192.076C194.261 189.891 197.045 188.403 200.076 187.8C203.107 187.197 206.249 187.507 209.104 188.689C211.959 189.872 214.399 191.875 216.116 194.444C217.833 197.014 218.75 200.035 218.75 203.125C218.736 207.265 217.086 211.232 214.158 214.159C211.231 217.086 207.264 218.737 203.125 218.75Z" fill="#39965F"/>
</svg>
