<svg width="589" height="892" viewBox="0 0 589 892" fill="none" xmlns="http://www.w3.org/2000/svg">
<path opacity="0.4" d="M335.429 255.344C328.204 251.179 323.018 251.094 319.873 255.004C316.643 258.915 315.113 265.546 315.113 274.812V324.969C315.113 334.49 314.263 342.397 312.478 348.687C310.693 355.233 307.718 359.824 303.637 362.544C299.642 365.35 294.202 366.03 287.316 364.755C280.601 363.565 272.185 359.994 262.155 354.213L257.395 351.408V311.877L263.43 315.363C270.655 319.528 275.416 320.038 277.796 317.063C280.346 314.088 281.621 307.967 281.621 298.7V254.494C281.621 242.932 282.726 233.836 285.021 227.205C287.231 220.489 291.737 216.239 298.452 214.368C291.737 204.762 287.231 195.241 285.021 185.974C282.811 176.708 281.706 166.336 281.706 154.775V110.569C281.706 101.302 280.431 93.6511 277.881 87.7853C275.501 82.0044 270.655 76.9887 263.515 72.8231L257.48 69.3376V29.807L262.24 32.6124C272.27 38.3932 280.686 44.5991 287.401 51.1451C294.287 57.776 299.727 64.747 303.722 72.2281C307.888 79.7091 310.863 87.7003 312.563 96.2865C314.348 104.618 315.198 113.544 315.198 123.065V173.222C315.198 182.489 316.813 190.99 319.958 198.556C323.188 206.122 328.374 212.073 335.514 216.154L335.429 255.344Z" fill="url(#paint0_linear_2112_433)"/>
<path opacity="0.4" d="M153.348 110.058C160.573 114.224 165.758 114.309 168.904 110.398C172.134 106.488 173.664 99.8568 173.664 90.5905V40.4334C173.664 30.912 174.514 23.0059 176.299 16.715C178.084 10.169 180.974 5.57839 184.97 2.77299C189.135 0.0526013 194.575 -0.627496 201.29 0.562674C208.176 1.83786 216.676 5.40837 226.707 11.2742L231.467 14.0796V53.6102L225.432 50.1247C218.206 45.9591 213.361 45.3641 210.811 48.3395C208.431 51.3999 207.241 57.5208 207.241 66.8721V111.078C207.241 122.555 206.136 131.736 203.841 138.367C201.631 145.083 197.125 149.334 190.41 151.204C197.125 160.811 201.631 170.332 203.841 179.598C206.051 188.865 207.156 199.236 207.156 210.798V255.004C207.156 264.27 208.346 271.836 210.726 277.702C213.276 283.568 218.121 288.669 225.347 292.749L231.382 296.235V335.766L226.622 332.96C216.591 327.179 208.091 320.888 201.205 314.342C194.49 307.797 189.05 300.826 184.885 293.259C180.889 285.863 177.999 277.872 176.299 269.371C174.514 261.04 173.664 252.114 173.664 242.592V192.435C173.664 183.169 172.049 174.668 168.904 167.101C165.673 159.535 160.488 153.585 153.348 149.504V110.058Z" fill="url(#paint1_linear_2112_433)"/>
<path opacity="0.15" d="M359.995 10.9343L539.441 114.564L539.356 544.81L359.91 441.266L359.995 10.9343Z" fill="url(#paint2_linear_2112_433)"/>
<path d="M326.25 67.2972L469.059 149.674V189.205L326.25 106.828V67.2972Z" fill="#589862"/>
<path opacity="0.2" d="M383.373 250.328L518.701 328.455V448.067L383.373 369.941V250.328Z" fill="url(#paint3_linear_2112_433)"/>
<path opacity="0.15" d="M382.012 158.6L519.38 237.916V251.433L382.012 172.117V158.6Z" fill="white"/>
<path opacity="0.15" d="M382.012 185.804L500.764 254.324V267.841L382.012 199.321V185.804Z" fill="white"/>
<path opacity="0.15" d="M382.012 212.668L482.828 270.816V284.333L382.012 226.185V212.668Z" fill="white"/>
<path opacity="0.2" d="M359.995 10.9343L539.441 114.564V172.202L359.91 68.6576L359.995 10.9343Z" fill="url(#paint4_linear_2112_433)"/>
<path opacity="0.2" d="M404.793 66.022C404.793 74.7783 399.693 78.8588 393.402 75.2033C387.112 71.5478 382.012 61.6014 382.012 52.8451C382.012 44.0889 387.112 40.0083 393.402 43.6638C399.693 47.3193 404.793 57.3508 404.793 66.022Z" fill="white"/>
<path opacity="0.15" d="M36.6377 142.703L589.001 461.499L588.916 892L36.5527 573.205L36.6377 142.703Z" fill="url(#paint5_linear_2112_433)"/>
<path d="M0 248.798L142.723 331.175V370.705L0 288.414V248.798Z" fill="#39965F"/>
<path opacity="0.15" d="M73.8691 357.444L390.768 540.39V553.907L73.8691 370.961V357.444Z" fill="white"/>
<path opacity="0.15" d="M73.8691 384.648L347.245 542.43V555.947L73.8691 398.165V384.648Z" fill="white"/>
<path opacity="0.15" d="M73.8691 411.596L306.528 545.916V559.432L73.8691 425.113V411.596Z" fill="white"/>
<path opacity="0.2" d="M287.742 582.981L566.389 743.824V863.436L287.742 702.593V582.981Z" fill="url(#paint6_linear_2112_433)"/>
<path opacity="0.15" d="M308.738 618.771L350.731 642.999V682.53L308.738 658.302V618.771Z" fill="white"/>
<path opacity="0.15" d="M360.166 650.395L402.159 674.624V714.154L360.166 689.926V650.395Z" fill="white"/>
<path opacity="0.15" d="M411.85 679.724L453.842 703.953V743.484L411.85 719.255V679.724Z" fill="white"/>
<path opacity="0.15" d="M463.533 710.924L505.526 735.153V774.683L463.533 750.455V710.924Z" fill="white"/>
<path opacity="0.2" d="M22.0156 425.028L253.994 558.923V678.535L22.0156 544.555V425.028Z" fill="url(#paint7_linear_2112_433)"/>
<path opacity="0.15" d="M45.3926 469.15L229.684 575.5V589.017L45.3926 482.667V469.15Z" fill="white"/>
<path opacity="0.15" d="M45.3926 496.354L192.961 581.536V595.053L45.3926 509.786V496.354Z" fill="white"/>
<path opacity="0.2" d="M36.6367 142.703L588.235 461.159V519.477L36.6367 201.106V142.703Z" fill="url(#paint8_linear_2112_433)"/>
<path opacity="0.2" d="M96.7364 206.547C96.7364 215.304 91.6361 219.384 85.3458 215.729C79.0554 212.073 73.9551 202.127 73.9551 193.37C73.9551 184.614 79.0554 180.534 85.3458 184.189C91.6361 187.845 96.7364 197.876 96.7364 206.547Z" fill="white"/>
<defs>
<linearGradient id="paint0_linear_2112_433" x1="384.36" y1="17.8761" x2="245.119" y2="259.239" gradientUnits="userSpaceOnUse">
<stop stop-color="#424C57"/>
<stop offset="0.903" stop-color="white" stop-opacity="0"/>
</linearGradient>
<linearGradient id="paint1_linear_2112_433" x1="303.983" y1="1.51234" x2="164.726" y2="242.845" gradientUnits="userSpaceOnUse">
<stop stop-color="#414B56"/>
<stop offset="0.903" stop-color="white" stop-opacity="0"/>
</linearGradient>
<linearGradient id="paint2_linear_2112_433" x1="542.815" y1="116.519" x2="371.207" y2="413.807" gradientUnits="userSpaceOnUse">
<stop stop-color="white"/>
<stop offset="1" stop-color="white" stop-opacity="0"/>
</linearGradient>
<linearGradient id="paint3_linear_2112_433" x1="476.95" y1="304.285" x2="429.254" y2="386.909" gradientUnits="userSpaceOnUse">
<stop stop-color="white"/>
<stop offset="1" stop-color="white" stop-opacity="0"/>
</linearGradient>
<linearGradient id="paint4_linear_2112_433" x1="421.521" y1="11.8282" x2="476.242" y2="166.739" gradientUnits="userSpaceOnUse">
<stop stop-color="#424C58"/>
<stop offset="1" stop-color="white" stop-opacity="0"/>
</linearGradient>
<linearGradient id="paint5_linear_2112_433" x1="405.971" y1="355.856" x2="315.073" y2="513.362" gradientUnits="userSpaceOnUse">
<stop stop-color="white"/>
<stop offset="1" stop-color="white" stop-opacity="0"/>
</linearGradient>
<linearGradient id="paint6_linear_2112_433" x1="452.987" y1="678.347" x2="405.292" y2="760.972" gradientUnits="userSpaceOnUse">
<stop stop-color="white"/>
<stop offset="1" stop-color="white" stop-opacity="0"/>
</linearGradient>
<linearGradient id="paint7_linear_2112_433" x1="163.887" y1="506.882" x2="116.192" y2="589.507" gradientUnits="userSpaceOnUse">
<stop stop-color="#434D58"/>
<stop offset="1" stop-color="white" stop-opacity="0"/>
</linearGradient>
<linearGradient id="paint8_linear_2112_433" x1="173.5" y1="95.7139" x2="382.973" y2="450.519" gradientUnits="userSpaceOnUse">
<stop stop-color="#546F94"/>
<stop offset="1" stop-color="white" stop-opacity="0"/>
</linearGradient>
</defs>
</svg>
